<?xml version="1.0" encoding="utf-8"?>
<!-- Generator: Adobe Illustrator 24.0.0, SVG Export Plug-In . SVG Version: 6.00 Build 0)  -->
<svg version="1.1" id="Layer_1" xmlns="http://www.w3.org/2000/svg" xmlns:xlink="http://www.w3.org/1999/xlink" x="0px" y="0px"
	 viewBox="0 0 720 720" enable-background="new 0 0 720 720" xml:space="preserve">
<path fill="#F4DB13" d="M632.42,191.85c-1.15-4.76-2.4-9.51-3.99-14.16c-2.82,0.97-5.63,1.94-8.45,2.91
	c-22.63,7.86-44.76,16.99-66.93,26.05c-11.31,4.63-22.63,9.26-34.41,12.63c-18.36,5.25-35.91,12.43-52.47,21.97
	c-5.88,3.39-11.62,7.02-17.71,10.05c-4,1.99-8.15,3.41-12.67,3.5c-5.77,0.12-11.53-0.1-17.2-1.22c-14.45-2.86-29.06-4.4-43.77-5.07
	c-12.85-0.59-25.7-0.94-38.56-0.57c-12.96,0.37-25.9,1.07-38.78,2.52c-11.54,1.31-23.07,2.79-34.56,4.45
	c-3.44,0.5-6.02-0.26-8.15-2.91c-0.97-1.2-2.03-2.33-3.03-3.5c-3.09-3.59-6.1-7.24-9.26-10.77c-8.94-9.98-18.91-18.91-28.6-28.13
	c-13.99-13.31-29.19-25.04-45.33-35.61c-26.17-17.13-53.23-32.78-80.42-48.22c-0.89-0.5-1.7-1.2-2.82-1.09
	c-3.72,2.97-4.46,7.28-4.86,11.57c-0.57,6.15-0.35,12.32,0.25,18.47c0.9,9.2,1.81,18.4,2.66,27.61c0.13,1.41,0.35,2.87-0.27,4.25
	c1.22,2.49,2.49,4.96,3.65,7.48c3.69,8.04,7.25,16.13,11.02,24.13c2.99,6.33,6.04,12.68,11.05,17.73
	c8.33,8.39,15.15,17.89,21.17,28.01c3.63,6.1,7.22,12.23,10.91,18.29c2.58,4.25,5.66,8.12,9.63,11.17c7,5.39,15.04,7.39,23.75,7.04
	c2.41-0.1,4.81-0.38,7.59-0.6c-0.56,0.88-0.87,1.53-1.32,2.05c-2.08,2.41-4.08,4.92-6.35,7.16c-4.82,4.76-8.47,10.3-11.59,16.27
	c-6.82,13.08-12.08,26.8-16.77,40.74c-6.2,18.44-11.21,37.2-15.45,56.18c-0.89,3.99-1.69,8-2.55,12.06
	c1.09,0.01,1.52-0.65,2.06-1.08c15.85-12.31,38.84-11.64,53.8,1.58c11.69,10.33,13.53,25.69,4.3,38.27
	c-8.2,11.18-19.75,15.85-33.27,15.48c-9.43-0.26-17.76-3.98-25.07-9.97c-2.05-1.68-3.76-3.69-5.69-5.47
	c-0.63,0.43-0.42,0.99-0.42,1.45c0.02,4.75,0.58,9.45,1.65,14.07c2.6,11.28,7.01,21.92,11.79,32.41
	c4.22,9.26,8.94,18.29,12.79,27.73c4.03,9.87,5.5,19.98,3.51,30.52c-0.84,4.47-2.28,8.74-4.06,12.92c-1.01,2.36-2.07,4.72-2.57,7.26
	c-0.85,4.34,1.37,7.41,5.72,8.11c5.59,0.9,11.24,1.3,16.88,1.69c19.09,1.33,38.2,2.21,57.31,2.99c16.13,0.66,32.27,1.29,48.4,1.86
	c13.06,0.46,26.12,0.83,39.18,1.23c14.39,0.44,28.79,0.87,43.18,1.27c13.98,0.39,27.97,0.74,41.95,1.1
	c18.82,0.48,37.64,0.99,56.46,1.39c14.29,0.31,28.59,0.66,42.88,1.18c13.06,0.48,26.12,0.81,39.17,1.25
	c12.23,0.41,24.47,0.8,36.66,2.01c1.94,0.19,3.88,0.59,5.82,0.61c5.2,0.05,7.27-2.25,6.85-7.48c-0.4-4.92-0.81-9.85-1.32-14.76
	c-1.1-10.64-2.18-21.29-3.42-31.92c-1.24-10.63-2.57-21.24-4.02-31.84c-1.44-10.5-3.04-20.97-4.66-31.44
	c-1.62-10.47-4.29-20.74-6.19-31.16c-1.42-7.79-2.53-15.65-4.2-23.38c-6.25-28.77-14.54-56.97-24.54-84.65
	c-5.41-14.99-10.94-29.95-19.07-43.76c-0.16-0.27-0.32-0.53-0.43-0.82c-0.23-0.59-0.36-1.18,0.16-1.71
	c0.57-0.57,1.15-0.23,1.71-0.01c1.97,0.8,3.39,2.31,4.7,3.9c1.91,2.31,3.43,4.87,4.83,7.52c1.36,2.58,1.85,2.81,4.63,1.87
	c1.84-0.63,3.65-1.4,5.4-2.25c3.88-1.89,7.69-3.93,11.58-5.8c8.51-4.08,16.18-9.4,23.27-15.58c8.62-7.51,16.8-15.49,24.67-23.78
	c2.05-2.16,4.33-4.1,6.05-6.56c-0.42-1.58,0.6-2.77,1.19-4.03c3.87-8.3,8.16-16.39,11.91-24.75c4.6-10.24,8.58-20.7,12.11-31.35
	C634.62,210.95,634.75,201.45,632.42,191.85z M257.44,373.39c-0.1,6.94-1.52,13.49-5.76,19.16c-5.7,7.63-14.56,10.55-24.18,8.07
	c-8.97-2.31-14.65-8.77-16.11-18.23c-0.89-5.79-0.49-11.49,1.08-17.1c3.39-12.19,12.82-17.62,24.77-16.49
	c13.44,1.27,19.74,10.67,20.19,23.36C257.45,372.57,257.44,372.98,257.44,373.39z M302.45,417.65c2.44-1.34,5.15-1.49,7.78-1.41
	c5.64,0.17,11.21,1.12,16.74,2.25c1.19,0.24,2.38,0.68,3.47,1.22c3.76,1.88,4.25,6.03,1.06,8.82c-1.74,1.52-3.9,2.22-6.09,2.8
	c-2.9,0.76-5.9,0.71-8.89,0.96c-3.76-0.17-7.53-0.51-11.07-2.1c-2.2-0.99-4.14-2.27-5.36-4.43
	C298.31,422.64,299.29,419.39,302.45,417.65z M366.39,515.86c-2.13,10.23-8.61,16.65-18.88,18.72c-2.22,0.45-4.47,0.75-6.72,0.85
	c-2.25,0.1-4.5,0.48-6.16,0.16c-10.08-0.49-19.44-1.68-28.48-4.71c-1.46-0.49-2.88-1.08-4.29-1.69
	c-10.16-4.43-15.56-12.32-16.99-23.18c-0.87-6.58-0.96-13.12,0.56-19.62c2.77-11.81,10.56-18.77,22.61-20.45
	c5.96-0.83,11.88-0.71,17.83,0.04c7.24,0.91,14.5,1.77,21.52,3.87c6.8,2.03,12.67,5.41,16.26,11.86c2.45,4.4,3.5,9.24,3.82,14.19
	C367.9,502.57,367.76,509.26,366.39,515.86z M431.1,408.49c-8.15-0.44-14.67-3.77-18.65-11.18c-2.34-4.37-3.08-9.12-2.9-13.64
	c-0.07-5.92,0.82-11.26,3.34-16.23c3.55-7,9.36-10.72,17.1-11.48c3.19-0.32,6.36-0.19,9.5,0.57c7.14,1.73,12.19,5.98,14.59,12.9
	c3.42,9.86,2.59,19.54-2.76,28.52C446.83,405.47,439.89,408.97,431.1,408.49z M525.63,461.16c1.59,8.06,0.9,16.02-2.1,23.67
	c-4.23,10.76-12.57,16.71-23.49,19.45c-4.82,1.21-9.74,1.53-14.38,1.66c-10.4-0.28-20.16-1.84-28.97-7.22
	c-10.27-6.27-15.07-16.74-13.36-28.68c1.66-11.56,7.03-20.73,16.87-27.13c5.37-3.5,11.36-5.34,17.69-5.88
	c8.79-0.75,17.47,0.23,25.98,2.54c3.88,1.06,7.54,2.7,10.9,4.98C520.69,448.59,524.26,454.21,525.63,461.16z"/>
<path fill="#723C26" d="M678.01,165.66c-3.06-0.31-6.18-0.4-9.22,0.18c-7.35,1.42-14.55,3.45-21.67,5.77
	c-6.23,2.03-12.46,4.05-18.69,6.08c1.59,4.65,2.84,9.4,3.99,14.16c2.32,9.6,2.2,19.1-0.95,28.59c-3.53,10.66-7.51,21.12-12.11,31.35
	c-3.75,8.36-8.03,16.45-11.91,24.75c-0.59,1.26-1.61,2.45-1.19,4.03c0.75-0.69,1.54-1.35,2.25-2.08
	c7.05-7.18,13.78-14.66,20.45-22.19c7.29-8.23,14.1-16.83,20.25-25.93c4.31-6.38,8.33-12.95,12.59-19.37
	c5.05-7.61,10.4-15.03,14.86-23.02c2.66-4.76,4.92-9.69,5.86-15.14C683.15,169.26,681.26,165.98,678.01,165.66z M83.7,123.35
	c-6.13-3.6-12.52-6.69-18.94-9.69c-4.54-2.13-9.15-4.18-14.11-5.27c-3.84-0.84-5.24,0.34-4.91,4.22c0.06,0.73,0.23,1.41,0.53,2.08
	c0.98,2.15,1.84,4.36,2.92,6.46c4.86,9.41,9.86,18.75,14.65,28.19c6.33,12.47,12.56,24.99,19.25,37.27c0.62-1.38,0.4-2.85,0.27-4.25
	c-0.85-9.21-1.77-18.41-2.66-27.61c-0.6-6.15-0.82-12.32-0.25-18.47c0.4-4.29,1.14-8.6,4.86-11.57
	C85.01,123.97,84.32,123.71,83.7,123.35z"/>
<path fill="#0B0A07" d="M698.27,169c-1.02-8.86-7.07-15.96-15.66-18.28c-3.43-0.92-6.9-1.09-10.41-0.73
	c-4.2,0.43-8.3,1.44-12.39,2.44c-16.28,3.97-32.19,9.18-48.09,14.43c-17.94,5.92-35.96,11.65-53.54,18.6
	c-13.66,5.4-27.14,11.26-40.94,16.31c-23,8.43-45.42,18.11-66.58,30.56c-4.66,2.74-9.68,4.6-15.15,4.76
	c-5.04,0.15-10.09-0.17-15.08-0.82c-5.41-0.7-10.79-1.58-16.23-1.97c-13.34-0.96-26.7-1.34-40.06-1.77
	c-11.93-0.38-23.87-0.33-35.81,0.15c-18.11,0.73-36.11,2.44-54.04,5.04c-2.74,0.4-5.49,0.87-8.29,0.55
	c-1.91-0.22-3.41-0.88-4.71-2.47c-10.25-12.56-21.7-23.98-33.85-34.64c-25.34-22.22-52.17-42.5-80.41-60.9
	C130.04,129.2,112.56,119,93.88,111c-5.19-2.22-10.51-4.14-15.75-6.26c-6.58-2.67-12.89-5.91-19.19-9.16
	c-5.75-2.97-11.67-3.64-17.95-2.31c-4.94,1.05-8.73,3.52-10.89,8.18c-1.37,2.96-1.88,6.07-1.42,9.33c0.64,4.53,2.13,8.8,4.22,12.83
	c5.12,9.84,10.34,19.64,14.49,29.95c2.08,5.17,4.65,10.08,7.51,14.85c2.75,4.59,5.27,9.3,7.41,14.21
	c4.15,9.52,8.54,18.9,13.73,27.92c6.82,11.85,13.17,23.98,20.13,35.74c8.35,14.12,18.54,26.95,28.82,39.7
	c6.72,8.34,13.46,16.66,21.39,23.92c0.91,0.83,1.68,1.81,2.46,2.76c1.77,2.18,2.18,4.59,1.08,7.21c-0.48,1.14-0.95,2.28-1.44,3.41
	c-6.74,15.67-14.21,31.01-20.85,46.73c-10.06,23.85-18.39,48.18-21.6,74.04c-1.58,12.72-2.36,25.47-0.8,38.18
	c2.71,22.04,9.58,42.6,22.66,60.9c6.93,9.69,11.09,20.61,11.87,32.63c0.5,7.69-0.72,14.97-5.54,21.32
	c-0.86,1.14-1.52,2.42-2.05,3.79c-0.7,1.82-0.45,3.43,0.62,4.97c2.9,4.14,6.59,7.27,11.36,9.13c8.12,3.18,16.61,4.77,25.22,5.47
	c9.32,0.76,18.69,0.95,28.04,1.37c17.26,0.78,34.52,1.57,51.78,2.29c12.44,0.52,24.88,0.9,37.31,1.38
	c14.59,0.57,29.18,1.2,43.77,1.76c8.84,0.34,17.69,0.58,26.53,0.9c14.59,0.53,29.18,1.1,43.78,1.63c8.12,0.29,16.24,0.52,24.36,0.78
	c15.73,0.51,31.45,1.07,47.18,1.53c13.06,0.38,26.12,0.56,39.18,1.01c13.27,0.46,26.54,0.41,39.82,0.57
	c10.28,0.12,20.55-1.15,28.99-0.31c10.22,0.21,14.53-1.4,17.99-3.16c3.47-1.76,5.19-4.26,4.84-8.38
	c-0.77-9.03-0.43-18.11-0.43-27.17c0-15.65-0.01-31.3-1.36-46.91c-0.67-7.8-1.57-15.61-3.89-23.09
	c-3.63-11.71-6.32-23.62-8.71-35.63c-3.01-15.13-5.97-30.26-7.92-45.58c-1.13-8.87-2.6-17.71-4.53-26.45
	c-3.29-14.89-8.09-29.3-13.46-43.55c-1.97-5.23-4.19-10.25-7.24-14.93c-1.06-1.63-1.87-3.42-2.83-5.12
	c-1.05-1.87-0.81-3.43,0.8-4.94c4.89-4.59,9.93-9.01,15.92-12.11c7.81-4.04,15.13-8.76,21.59-14.74
	c17.7-16.39,34.39-33.73,49.55-52.52c14.49-17.96,27.97-36.64,40.83-55.79c5.46-8.12,10.63-16.4,14.16-25.58
	C697.76,181.68,699.02,175.5,698.27,169z M682.53,172.85c-0.94,5.44-3.2,10.38-5.86,15.14c-4.47,7.98-9.82,15.4-14.86,23.02
	c-4.25,6.42-8.27,12.99-12.59,19.37c-6.15,9.1-12.96,17.7-20.25,25.93c-6.67,7.53-13.4,15.01-20.45,22.19
	c-0.72,0.73-1.5,1.39-2.25,2.08c-1.72,2.46-4,4.4-6.05,6.56c-7.87,8.29-16.05,16.27-24.67,23.78c-7.1,6.18-14.77,11.5-23.27,15.58
	c-3.89,1.87-7.7,3.91-11.58,5.8c-1.75,0.85-3.56,1.62-5.4,2.25c-2.77,0.94-3.27,0.71-4.63-1.87c-1.4-2.65-2.92-5.21-4.83-7.52
	c-1.31-1.59-2.73-3.1-4.7-3.9c-0.56-0.23-1.14-0.56-1.71,0.01c-0.52,0.53-0.39,1.12-0.16,1.71c0.11,0.29,0.28,0.55,0.43,0.82
	c8.13,13.82,13.65,28.78,19.07,43.76c10,27.68,18.3,55.88,24.54,84.65c1.68,7.73,2.78,15.59,4.2,23.38
	c1.9,10.42,4.57,20.69,6.19,31.16c1.62,10.47,3.22,20.94,4.66,31.44c1.45,10.6,2.78,21.22,4.02,31.84
	c1.24,10.63,2.32,21.28,3.42,31.92c0.51,4.91,0.92,9.84,1.32,14.76c0.42,5.23-1.66,7.53-6.85,7.48c-1.94-0.02-3.88-0.42-5.82-0.61
	c-12.19-1.22-24.42-1.6-36.66-2.01c-13.06-0.44-26.12-0.77-39.17-1.25c-14.29-0.52-28.58-0.87-42.88-1.18
	c-18.82-0.41-37.64-0.92-56.46-1.39c-13.98-0.35-27.97-0.71-41.95-1.1c-14.39-0.4-28.79-0.84-43.18-1.27
	c-13.06-0.4-26.12-0.76-39.18-1.23c-16.14-0.57-32.27-1.2-48.4-1.86c-19.11-0.79-38.23-1.67-57.31-2.99
	c-5.64-0.39-11.28-0.8-16.88-1.69c-4.34-0.7-6.56-3.77-5.72-8.11c0.5-2.54,1.56-4.9,2.57-7.26c1.78-4.17,3.21-8.45,4.06-12.92
	c1.99-10.54,0.51-20.65-3.51-30.52c-3.85-9.44-8.56-18.47-12.79-27.73c-4.79-10.49-9.19-21.12-11.79-32.41
	c-1.07-4.63-1.62-9.32-1.65-14.07c0-0.47-0.21-1.02,0.42-1.45c1.93,1.77,3.65,3.79,5.69,5.47c7.31,6,15.63,9.72,25.07,9.97
	c13.53,0.37,25.07-4.3,33.27-15.48c9.23-12.59,7.4-27.94-4.3-38.27c-14.96-13.22-37.95-13.89-53.8-1.58
	c-0.55,0.42-0.98,1.09-2.06,1.08c0.85-4.06,1.66-8.07,2.55-12.06c4.24-18.97,9.25-37.74,15.45-56.18
	c4.69-13.95,9.95-27.67,16.77-40.74c3.11-5.97,6.77-11.51,11.59-16.27c2.26-2.24,4.26-4.75,6.35-7.16c0.45-0.52,0.76-1.17,1.32-2.05
	c-2.78,0.23-5.18,0.51-7.59,0.6c-8.7,0.35-16.75-1.65-23.75-7.04c-3.97-3.05-7.04-6.93-9.63-11.17
	c-3.69-6.07-7.29-12.19-10.91-18.29c-6.01-10.13-12.84-19.63-21.17-28.01c-5.01-5.05-8.07-11.4-11.05-17.73
	c-3.77-8-7.33-16.09-11.02-24.13c-1.16-2.52-2.43-4.99-3.65-7.48c-6.69-12.28-12.92-24.8-19.25-37.27
	c-4.8-9.44-9.8-18.78-14.65-28.19c-1.08-2.1-1.94-4.31-2.92-6.46c-0.3-0.67-0.47-1.35-0.53-2.08c-0.33-3.88,1.07-5.06,4.91-4.22
	c4.95,1.09,9.57,3.14,14.11,5.27c6.42,3.01,12.82,6.1,18.94,9.69c0.62,0.36,1.31,0.63,1.61,1.35c1.12-0.11,1.93,0.58,2.82,1.09
	c27.19,15.43,54.25,31.08,80.42,48.22c16.14,10.57,31.34,22.3,45.33,35.61c9.69,9.22,19.67,18.15,28.6,28.13
	c3.16,3.53,6.18,7.18,9.26,10.77c1.01,1.17,2.06,2.3,3.03,3.5c2.13,2.65,4.71,3.41,8.15,2.91c11.5-1.66,23.02-3.14,34.56-4.45
	c12.88-1.46,25.82-2.15,38.78-2.52c12.87-0.37,25.72-0.02,38.56,0.57c14.7,0.67,29.31,2.21,43.77,5.07
	c5.68,1.12,11.43,1.34,17.2,1.22c4.52-0.09,8.68-1.52,12.67-3.5c6.09-3.02,11.83-6.66,17.71-10.05
	c16.56-9.54,34.11-16.72,52.47-21.97c11.78-3.37,23.09-8.01,34.41-12.63c22.16-9.06,44.3-18.19,66.93-26.05
	c2.81-0.98,5.63-1.94,8.45-2.91c6.23-2.03,12.46-4.05,18.69-6.08c7.12-2.32,14.32-4.35,21.67-5.77c3.04-0.59,6.17-0.49,9.22-0.18
	C681.26,165.98,683.15,169.26,682.53,172.85z M140.14,437.1c11.77-4.68,23.51-4.69,34.59,2.28c3.73,2.34,6.58,5.59,8.23,9.76
	c4.52,11.44-1.42,23.58-13.37,27.27c-1.67,0.51-3.37,0.99-5.09,1.22c-2.64,0.35-5.29,0.85-7.45,0.64
	c-5.51,0.04-10.37-0.63-15.08-2.31c-8.56-3.05-13.55-9.26-13.87-17.79C127.75,448.56,131.45,440.56,140.14,437.1z M514.76,444.56
	c-3.35-2.28-7.01-3.92-10.9-4.98c-8.5-2.32-17.18-3.29-25.98-2.54c-6.32,0.54-12.32,2.38-17.69,5.88
	c-9.83,6.41-15.21,15.57-16.87,27.13c-1.71,11.94,3.09,22.4,13.36,28.68c8.81,5.38,18.58,6.94,28.97,7.22
	c4.64-0.13,9.56-0.45,14.38-1.66c10.92-2.74,19.26-8.69,23.49-19.45c3.01-7.65,3.7-15.6,2.1-23.67
	C524.26,454.21,520.69,448.59,514.76,444.56z M510.64,487.69c-5.98,6.36-13.54,9.08-22,9.78c-1.43,0.12-2.88,0.02-4.32,0.02
	c-5.07,0.07-10.05-0.54-14.89-2.09c-9-2.89-15.43-8.38-16.86-18.12c-1.49-10.09,1.51-18.75,9.74-25.18
	c5.19-4.06,11.32-5.81,17.76-6.36c7.33-0.62,14.58-0.06,21.58,2.49C521.5,455.47,520.96,476.72,510.64,487.69z M363.65,481.7
	c-3.59-6.45-9.47-9.83-16.26-11.86c-7.02-2.1-14.27-2.96-21.52-3.87c-5.94-0.75-11.87-0.86-17.83-0.04
	c-12.06,1.68-19.84,8.64-22.61,20.45c-1.52,6.5-1.43,13.04-0.56,19.62c1.43,10.86,6.83,18.76,16.99,23.18
	c1.41,0.61,2.84,1.2,4.29,1.69c9.04,3.03,18.4,4.22,28.48,4.71c1.65,0.32,3.91-0.05,6.16-0.16c2.26-0.1,4.5-0.4,6.72-0.85
	c10.27-2.08,16.75-8.49,18.88-18.72c1.37-6.6,1.51-13.29,1.07-19.97C367.14,490.94,366.1,486.1,363.65,481.7z M360.25,512.84
	c-1.7,6.91-6.01,11.28-12.89,13.14c-3.39,0.92-6.84,1.35-10.36,1.35c-4.83,0-9.66,0.06-14.5-0.01c-11.04-0.15-19.3-4.94-24.4-14.86
	c-1.54-3-3.13-5.99-3.86-9.34c-4.59-8.31-2.55-17.28,5.2-22.84c4.45-3.19,9.5-4.85,14.84-5.64c5.4-0.8,10.83-0.9,16.25,0.03
	c5.88,0.25,11.64,1.17,17.11,3.43c6.99,2.89,11.25,8.08,12.78,15.47C361.77,500.01,361.82,506.44,360.25,512.84z M237.24,348.8
	c-11.95-1.13-21.38,4.3-24.77,16.49c-1.56,5.62-1.97,11.32-1.08,17.1c1.46,9.46,7.14,15.92,16.11,18.23
	c9.62,2.48,18.48-0.44,24.18-8.07c4.24-5.67,5.66-12.23,5.76-19.16c0-0.41,0.01-0.82,0-1.24
	C256.98,359.47,250.68,350.07,237.24,348.8z M238.44,367.71c-0.71,4.98-4.08,8.58-9.79,8.12c-1.03-0.06-2.07-0.02-3.08-0.19
	c-2.91-0.49-4.83-2.14-5.59-5.04c-0.5-1.9-0.74-3.84-0.63-5.81c0.28-4.83,3.54-8.33,8.27-8.89c5.25-0.62,8.83,1.7,10.37,6.62
	C238.53,364.24,238.69,365.98,238.44,367.71z M451.32,397.94c5.35-8.98,6.18-18.66,2.76-28.52c-2.4-6.92-7.44-11.17-14.59-12.9
	c-3.14-0.76-6.31-0.88-9.5-0.57c-7.74,0.77-13.55,4.48-17.1,11.48c-2.52,4.97-3.41,10.31-3.34,16.23c-0.19,4.53,0.55,9.28,2.9,13.64
	c3.98,7.41,10.49,10.74,18.65,11.18C439.89,408.97,446.83,405.47,451.32,397.94z M426.23,383.24c-1.33-0.09-2.66-0.06-3.95-0.48
	c-1.97-0.63-3.4-1.81-4.18-3.77c-1.09-2.74-1.39-5.59-0.81-8.44c0.85-4.14,3.61-7.13,9.55-7.52c4.12-0.27,7.63,2.62,8.89,7.04
	c0.28,0.99,0.45,1.98,0.5,3.02C436.49,378.11,433.39,383.67,426.23,383.24z M305.44,430.19c3.54,1.59,7.31,1.93,11.07,2.1
	c3-0.25,5.99-0.2,8.89-0.96c2.2-0.57,4.35-1.28,6.09-2.8c3.19-2.79,2.7-6.93-1.06-8.82c-1.09-0.55-2.27-0.98-3.47-1.22
	c-5.53-1.13-11.1-2.08-16.74-2.25c-2.62-0.08-5.34,0.07-7.78,1.41c-3.16,1.74-4.14,4.99-2.37,8.11
	C301.29,427.91,303.24,429.2,305.44,430.19z"/>
<path fill="#E11E2E" d="M174.73,439.37c-11.09-6.97-22.83-6.96-34.59-2.28c-8.69,3.46-12.39,11.46-12.03,21.06
	c0.32,8.53,5.31,14.74,13.87,17.79c4.71,1.68,9.57,2.35,15.08,2.31c2.16,0.21,4.81-0.29,7.45-0.64c1.72-0.23,3.43-0.71,5.09-1.22
	c11.95-3.69,17.89-15.82,13.37-27.27C181.32,444.96,178.46,441.72,174.73,439.37z M501.64,448.24c-7-2.55-14.25-3.11-21.58-2.49
	c-6.44,0.54-12.57,2.3-17.76,6.36c-8.22,6.43-11.23,15.08-9.74,25.18c1.44,9.74,7.86,15.23,16.86,18.12
	c4.84,1.55,9.82,2.16,14.89,2.09c1.44,0,2.89,0.1,4.32-0.02c8.46-0.7,16.02-3.41,22-9.78C520.96,476.72,521.5,455.47,501.64,448.24z
	"/>
<path fill="#ED7F62" d="M360.43,493.58c-1.54-7.39-5.8-12.59-12.78-15.47c-5.47-2.26-11.23-3.18-17.11-3.43
	c-3.24,2.36-7.07,3.64-10.44,5.81c-6.39,4.11-12.63,8.39-18.03,13.78c-2.11,2.11-3.92,4.46-5.66,6.88c-0.58,0.8-0.89,1.92-2.16,1.98
	c0.72,3.35,2.31,6.34,3.86,9.34c5.1,9.92,13.36,14.71,24.4,14.86c4.83,0.07,9.66,0,14.5,0.01c3.51,0,6.96-0.43,10.36-1.35
	c6.87-1.86,11.19-6.23,12.89-13.14C361.82,506.44,361.77,500.01,360.43,493.58z"/>
<path fill="#AB4A33" d="M314.29,474.65c-5.34,0.79-10.39,2.45-14.84,5.64c-7.75,5.55-9.79,14.53-5.2,22.84
	c1.27-0.05,1.58-1.18,2.16-1.98c1.74-2.42,3.54-4.77,5.66-6.88c5.41-5.39,11.64-9.67,18.03-13.78c3.36-2.16,7.2-3.45,10.44-5.81
	C325.12,473.75,319.69,473.85,314.29,474.65z"/>
<path fill="#FEFEFE" d="M227.63,355.9c-4.73,0.55-7.98,4.05-8.27,8.89c-0.12,1.97,0.12,3.9,0.63,5.81c0.77,2.9,2.69,4.55,5.59,5.04
	c1.01,0.17,2.05,0.13,3.08,0.19c5.7,0.46,9.08-3.14,9.79-8.12c0.25-1.73,0.09-3.47-0.45-5.19
	C236.45,357.61,232.88,355.29,227.63,355.9z M436.24,373.1c-0.05-1.04-0.22-2.03-0.5-3.02c-1.25-4.42-4.76-7.31-8.89-7.04
	c-5.94,0.39-8.7,3.37-9.55,7.52c-0.58,2.86-0.29,5.7,0.81,8.44c0.78,1.96,2.21,3.13,4.18,3.77c1.3,0.42,2.63,0.39,3.95,0.47
	C433.39,383.67,436.49,378.11,436.24,373.1z"/>
</svg>
